<?xml version="1.0" encoding="utf-8"?>
<!-- Generator: Adobe Illustrator 17.0.0, SVG Export Plug-In . SVG Version: 6.00 Build 0)  -->
<!DOCTYPE svg PUBLIC "-//W3C//DTD SVG 1.1//EN" "http://www.w3.org/Graphics/SVG/1.1/DTD/svg11.dtd">
<svg version="1.1" id="Layer_1" xmlns="http://www.w3.org/2000/svg" xmlns:xlink="http://www.w3.org/1999/xlink" x="0px" y="0px"
	 width="50px" height="50px" viewBox="0 0 50 50" enable-background="new 0 0 50 50" xml:space="preserve">
<g>
	<polygon fill="#FFFFFF" points="30.385,6.548 38.388,6.548 38.388,1.038 30.385,1.038 30.385,1.038 22.385,1.038 22.385,6.548 
		30.385,6.548 	"/>
	<polygon fill="#FFFFFF" points="43.526,11.664 43.526,19.666 43.526,27.668 49.036,27.668 49.036,19.666 49.036,11.664 	"/>
	<rect x="38.388" y="6.548" fill="#FFFFFF" width="5.116" height="5.116"/>
	<rect x="17.29" y="27.69" fill="#FFFFFF" width="5.116" height="5.116"/>
	<polygon fill="#FFFFFF" points="11.758,27.69 17.268,27.69 17.268,19.687 17.268,17.194 19.63,17.194 19.63,17.194 27.633,17.194 
		27.633,11.684 22.385,11.684 22.385,6.568 17.268,6.568 17.268,11.684 11.758,11.684 11.628,11.684 11.628,17.194 11.758,17.194 
		11.758,17.215 6.512,17.215 6.512,22.33 11.758,22.33 	"/>
	<rect x="27.633" y="17.194" fill="#FFFFFF" width="5.116" height="5.116"/>
	<polygon fill="#FFFFFF" points="38.28,22.31 32.77,22.31 32.77,30.312 32.77,32.806 30.409,32.806 22.405,32.806 22.405,38.316 
		27.653,38.316 27.653,43.431 32.77,43.431 32.77,38.315 38.28,38.315 38.41,38.315 38.41,32.806 38.28,32.806 38.28,32.785 
		43.526,32.785 43.526,27.668 38.28,27.668 	"/>
	<polygon fill="#FFFFFF" points="11.65,43.452 11.65,48.962 19.653,48.962 19.653,48.961 27.653,48.961 27.653,43.452 
		19.653,43.452 	"/>
	<rect x="6.533" y="38.336" fill="#FFFFFF" width="5.116" height="5.116"/>
	<polygon fill="#FFFFFF" points="1.002,30.333 1.002,38.337 6.512,38.337 6.512,30.333 6.512,22.33 1.002,22.33 	"/>
</g>
</svg>
