<?xml version="1.0" encoding="utf-8"?>
<!-- Generator: Adobe Illustrator 17.0.0, SVG Export Plug-In . SVG Version: 6.00 Build 0)  -->
<!DOCTYPE svg PUBLIC "-//W3C//DTD SVG 1.1//EN" "http://www.w3.org/Graphics/SVG/1.1/DTD/svg11.dtd">
<svg version="1.1" id="Layer_1" xmlns="http://www.w3.org/2000/svg" xmlns:xlink="http://www.w3.org/1999/xlink" x="0px" y="0px"
	 width="50px" height="50px" viewBox="0 0 50 50" enable-background="new 0 0 50 50" xml:space="preserve">
<path fill="#FFFFFF" d="M33.781,24.008c0.966-0.271,2.194-0.639,3.749-1.138C50.108,18.837,48.537,3.2,48.537,3.2H41.93h-3.163
	V1.233H11.232V3.2H8.069H1.465c0,0-1.589,15.693,11.009,19.669c1.542,0.487,2.766,0.852,3.732,1.119
	c1.908,2.317,4.255,3.967,6.829,4.533v14.08c-6.672,0.412-11.801,2.865-11.801,5.832h27.533c0-2.967-5.132-5.42-11.799-5.832v-14.08
	C29.533,27.955,31.877,26.318,33.781,24.008 M38.767,9.705V5.169h3.163h4.713C46.616,9.075,45.597,18.219,36.929,21
	c-0.496,0.155-0.937,0.295-1.356,0.426C37.566,18.021,38.767,13.831,38.767,9.705L38.767,9.705z M13.068,20.995
	C4.386,18.253,3.381,9.075,3.359,5.169h4.71h3.163v4.536c0,4.127,1.199,8.314,3.189,11.712
	C14.002,21.288,13.559,21.147,13.068,20.995"/>
</svg>
